<svg xmlns="http://www.w3.org/2000/svg" viewBox="0 0 512 512"><path d="M347.6 64c-41 0-79 14-91.6 44.5C242.5 78 205.4 64 164.5 64 109.3 64 64 90 64 143v283h22.2c12.8-26.3 44.2-42 78.3-42 40.2 0 73.8 27.5 81.6 64h20c7.8-36.5 41.6-64 81.8-64 34 0 61.2 11.7 78.4 42h22V143c0-53-45-79-100.3-79zM248 411c-18-26-48.7-43-83.5-43S100 378 81 404l-1 .5V141c3-41.8 40-61 84.3-61 45.2 0 82 18.7 83.4 61.8v2.2l.3 13v254zm184-263v256c-18-26-49.7-36-84.5-36S282 385 264 411V144c0-44 37.7-64 83.6-64 44.2 0 81.4 11.2 84.4 53v15z"/></svg>