<svg xmlns="http://www.w3.org/2000/svg" viewBox="0 0 100 100" preserveAspectRatio="xMidYMid" class="uil-ring"><path fill="none" d="M0 0h100v100H0z" class="bk"/><defs><filter id="a" width="300%" height="300%" x="-100%" y="-100%"><feOffset result="offOut" in="SourceGraphic"/><feGaussianBlur result="blurOut" in="offOut"/><feBlend in="SourceGraphic" in2="blurOut"/></filter></defs><path fill="#2196F3" d="M10 50v1.4l.3 1.7v1.2l.3 1.2.5 2.8 1 3.2 1.4 3.5 1.8 3.6 1.2 2 1.3 1.8 3 3.7c2.3 2.6 5 4.8 8 6.8s6.5 3.4 10 4.6c3.7 1 7.6 1.5 11.3 1.6 4 0 7.7-.6 11.3-1.6 3.6-1.2 7-2.6 10-4.6 3-2 5.8-4.2 8-6.7 1-1 2-2.4 3-3.6.5-.6 1-1.3 1.3-2l1.2-1.8 1.8-3.7 1.4-3.6 1-3.2c0-1 .3-2 .4-2.8 0-.4 0-.8.2-1.2v-1l.3-1.8V50v5.5l-.5 2.8-.7 3.3-1.2 3.7-.8 2-1 2-1 2-1.2 2-3 4c-2.3 2.6-5 5-8.2 7L70 85.7c-.8.5-1.7 1-2.6 1.3l-1.4.7-1.4.5-2.8 1c-3.8 1-8 1.7-11.8 1.8l-3-.2-3-.3-1.5-.2h-.7L41 90l-2.8-.7-2.8-1-1.4-.6-1.3-.6c-1-.3-1.8-.7-2.6-1.2l-2.3-1.5c-3-2-6-4.5-8-7-1.3-1.3-2.2-2.8-3.2-4l-1.2-2-1-2-1-2-.8-2c-.4-1.3-1-2.5-1.2-3.7l-.7-3.3-.4-2.8v-1.2-1-1.8L10 50z" filter="url(#a)"><animateTransform attributeName="transform" type="rotate" from="0 50 50" to="360 50 50" repeatCount="indefinite" dur="1s"/></path></svg>